<svg width="9" height="8" viewBox="0 0 9 8" fill="none" xmlns="http://www.w3.org/2000/svg">
<g clip-path="url(#clip0_724_21)">
<path d="M0.126349 7.62147C0.297248 7.78748 0.580451 7.78748 0.746467 7.62147L3.87147 4.49647L6.99647 7.62147C7.16248 7.78748 7.45057 7.79237 7.61658 7.62147C7.7826 7.45057 7.7826 7.17225 7.61658 7.00623L4.49158 3.87635L7.61658 0.751349C7.7826 0.585334 7.78748 0.302131 7.61658 0.136115C7.44569 -0.0347836 7.16248 -0.0347836 6.99647 0.136115L3.87147 3.26112L0.746467 0.136115C0.580451 -0.0347836 0.292365 -0.0396664 0.126349 0.136115C-0.0396661 0.307013 -0.0396661 0.585334 0.126349 0.751349L3.25135 3.87635L0.126349 7.00623C-0.0396661 7.17225 -0.0445489 7.45545 0.126349 7.62147Z" fill="black" fill-opacity="0.85"/>
</g>
<defs>
<clipPath id="clip0_724_21">
<rect width="8.30934" height="7.74782" fill="white"/>
</clipPath>
</defs>
</svg>
