<svg width="559" height="160" viewBox="0 0 559 160" fill="none" xmlns="http://www.w3.org/2000/svg">
<rect width="559" height="160" fill="#181818"/>
<path d="M31 120H531" stroke="#3D3D3D" stroke-dasharray="2 2"/>
<path d="M31 144H531" stroke="#3D3D3D" stroke-dasharray="2 2"/>
<g clip-path="url(#clip0_796_60)">
<path d="M202 120H178V144H202V120Z" fill="white"/>
<path d="M194.122 138.75C194.605 139.539 195.234 140.12 196.347 140.12C197.281 140.12 197.878 139.653 197.878 139.007C197.878 138.234 197.265 137.96 196.236 137.51L195.672 137.268C194.045 136.575 192.964 135.706 192.964 133.87C192.964 132.179 194.253 130.891 196.267 130.891C197.701 130.891 198.732 131.39 199.474 132.697L197.718 133.824C197.332 133.131 196.914 132.858 196.267 132.858C195.606 132.858 195.188 133.277 195.188 133.824C195.188 134.501 195.607 134.775 196.574 135.194L197.138 135.435C199.054 136.257 200.136 137.095 200.136 138.978C200.136 141.009 198.541 142.121 196.399 142.121C194.304 142.121 192.951 141.123 192.289 139.815L194.122 138.75ZM186.155 138.946C186.509 139.574 186.832 140.106 187.607 140.106C188.348 140.106 188.815 139.816 188.815 138.688V131.02H191.07V138.719C191.07 141.054 189.701 142.117 187.703 142.117C185.897 142.117 184.851 141.183 184.319 140.057L186.155 138.946Z" fill="black"/>
</g>
<path d="M166.488 126.187V128.758C166.488 130.751 164.799 132.428 162.872 132.428H157.09C155.506 132.428 154.195 133.784 154.195 135.37V140.883C154.195 142.452 155.559 143.375 157.09 143.824C158.922 144.363 160.679 144.46 162.872 143.824C164.329 143.402 165.766 142.553 165.766 140.883V138.677H159.984V137.941H168.661C170.343 137.941 170.971 136.768 171.556 135.006C172.16 133.193 172.134 131.449 171.556 129.123C171.14 127.448 170.346 126.187 168.661 126.187L166.488 126.187ZM163.236 140.147C163.836 140.147 164.322 140.639 164.322 141.247C164.322 141.857 163.836 142.354 163.236 142.354C162.638 142.354 162.15 141.857 162.15 141.247C162.15 140.639 162.638 140.147 163.236 140.147Z" fill="white"/>
<path d="M159.857 120C158.868 120.005 157.923 120.089 157.091 120.236C154.641 120.669 154.197 121.575 154.197 123.246V125.452H159.986V126.187H152.024C150.342 126.187 148.869 127.198 148.408 129.123C147.876 131.328 147.852 132.704 148.408 135.006C148.819 136.72 149.802 137.941 151.484 137.941H153.475V135.296C153.475 133.385 155.128 131.7 157.091 131.7H162.874C164.483 131.7 165.768 130.374 165.768 128.758V123.246C165.768 121.677 164.444 120.498 162.874 120.236C161.879 120.071 160.847 119.996 159.857 120ZM156.727 121.775C157.325 121.775 157.813 122.271 157.813 122.881C157.813 123.489 157.325 123.981 156.727 123.981C156.127 123.981 155.641 123.489 155.641 122.881C155.64 122.271 156.127 121.775 156.727 121.775Z" fill="white" fill-opacity="0.9"/>
<path d="M220 144C226.627 144 232 138.627 232 132C232 125.373 226.627 120 220 120C213.373 120 208 125.373 208 132C208 138.627 213.373 144 220 144Z" fill="white"/>
<path d="M218.663 126.857H220.103L219.696 129.021H220.99C221.699 129.036 222.228 129.194 222.576 129.496C222.931 129.798 223.035 130.372 222.889 131.218L222.19 134.99H220.729L221.397 131.388C221.466 131.01 221.445 130.742 221.334 130.584C221.223 130.425 220.983 130.346 220.614 130.346L219.456 130.335L218.6 134.99H217.16L218.663 126.857Z" fill="black"/>
<path fill-rule="evenodd" clip-rule="evenodd" d="M212.064 129.021H214.861C215.682 129.029 216.277 129.286 216.645 129.791C217.014 130.297 217.136 130.988 217.011 131.864C216.962 132.265 216.854 132.657 216.687 133.043C216.527 133.428 216.305 133.775 216.019 134.085C215.671 134.477 215.299 134.727 214.903 134.832C214.506 134.938 214.096 134.991 213.671 134.991H212.419L212.023 137.143H210.572L212.064 129.021ZM212.659 133.711L213.283 130.324H213.494C213.571 130.324 213.651 130.32 213.734 130.313C214.291 130.305 214.753 130.362 215.122 130.482C215.498 130.603 215.623 131.06 215.498 131.853C215.345 132.797 215.045 133.348 214.6 133.507C214.155 133.658 213.598 133.73 212.931 133.722H212.784C212.743 133.722 212.701 133.718 212.659 133.711Z" fill="black"/>
<path fill-rule="evenodd" clip-rule="evenodd" d="M227.232 129.021H224.436L222.943 137.143H224.394L224.79 134.991H226.043C226.467 134.991 226.877 134.938 227.274 134.832C227.671 134.727 228.043 134.477 228.391 134.085C228.676 133.775 228.898 133.428 229.058 133.043C229.225 132.657 229.333 132.265 229.382 131.864C229.507 130.988 229.385 130.297 229.017 129.791C228.648 129.286 228.053 129.029 227.232 129.021ZM225.654 130.324L225.03 133.711C225.072 133.718 225.114 133.722 225.156 133.722H225.302C225.97 133.73 226.526 133.658 226.971 133.507C227.416 133.348 227.716 132.797 227.869 131.853C227.994 131.06 227.869 130.603 227.493 130.482C227.124 130.362 226.662 130.305 226.105 130.313C226.022 130.32 225.942 130.324 225.865 130.324H225.654Z" fill="black"/>
<path d="M251.487 134.384C252.817 134.384 253.895 133.306 253.895 131.976C253.895 130.646 252.817 129.568 251.487 129.568C250.157 129.568 249.079 130.646 249.079 131.976C249.079 133.306 250.157 134.384 251.487 134.384Z" fill="white"/>
<path d="M251.486 137.497C248.591 137.567 245.704 137.177 242.932 136.341C241.651 135.935 240.457 135.296 239.409 134.455C239.009 134.168 238.676 133.798 238.433 133.37C238.19 132.942 238.042 132.466 238 131.976C238 130.383 239.749 128.823 242.68 127.802C245.526 126.897 248.5 126.459 251.486 126.503C254.432 126.462 257.366 126.893 260.176 127.779C261.41 128.172 262.563 128.78 263.584 129.576C263.977 129.85 264.305 130.207 264.545 130.622C264.785 131.036 264.93 131.498 264.971 131.976C264.971 133.631 263.016 135.308 259.866 136.35C257.148 137.158 254.321 137.545 251.486 137.497ZM251.486 127.655C248.629 127.617 245.784 128.034 243.058 128.89C240.361 129.831 239.152 131.118 239.152 131.973C239.152 132.867 240.452 134.272 243.305 135.248C245.957 136.043 248.718 136.414 251.486 136.345C254.199 136.394 256.903 136.026 259.505 135.257C262.467 134.275 263.816 132.868 263.816 131.976C263.767 131.67 263.655 131.377 263.488 131.116C263.32 130.855 263.101 130.632 262.843 130.46C261.929 129.755 260.898 129.215 259.798 128.867C257.109 128.023 254.303 127.614 251.486 127.655Z" fill="white"/>
<path d="M246.014 143.987C245.565 143.997 245.121 143.888 244.727 143.671C243.348 142.875 242.87 140.581 243.449 137.532C244.087 134.614 245.193 131.819 246.724 129.255C248.16 126.682 249.999 124.355 252.17 122.363C253.126 121.491 254.23 120.796 255.429 120.309C255.863 120.105 256.336 120 256.815 120C257.295 120 257.768 120.105 258.202 120.309C259.636 121.135 260.111 123.667 259.441 126.916C258.783 129.675 257.706 132.317 256.247 134.75C254.862 137.292 253.081 139.599 250.972 141.582C249.981 142.489 248.83 143.204 247.579 143.691C247.078 143.877 246.549 143.977 246.014 143.987ZM247.722 129.827C246.262 132.282 245.202 134.955 244.582 137.744C244.049 140.552 244.561 142.24 245.304 142.67C246.075 143.116 247.946 142.693 250.217 140.709C252.23 138.808 253.93 136.601 255.252 134.168C256.65 131.842 257.683 129.316 258.316 126.678C258.946 123.619 258.402 121.747 257.629 121.302C257.34 121.191 257.03 121.141 256.721 121.156C256.411 121.171 256.108 121.25 255.83 121.388C254.762 121.828 253.781 122.454 252.931 123.235C250.856 125.143 249.1 127.37 247.729 129.833L247.722 129.827Z" fill="white"/>
<path d="M256.955 144C255.65 144 253.992 143.21 252.266 141.725C250.057 139.715 248.188 137.361 246.73 134.754C245.218 132.225 244.121 129.47 243.48 126.594C243.202 125.329 243.15 124.024 243.328 122.741C243.369 122.265 243.514 121.804 243.753 121.39C243.991 120.976 244.318 120.62 244.709 120.346C246.142 119.516 248.572 120.369 251.052 122.571C253.114 124.519 254.865 126.771 256.244 129.25C257.755 131.72 258.864 134.415 259.529 137.233C259.819 138.544 259.864 139.898 259.661 141.226C259.613 141.716 259.459 142.19 259.211 142.614C258.962 143.039 258.625 143.405 258.222 143.687C257.835 143.902 257.398 144.01 256.955 144ZM247.727 134.174C249.125 136.666 250.911 138.919 253.017 140.849C255.184 142.713 256.902 143.113 257.641 142.679C258.412 142.231 258.98 140.403 258.394 137.445C257.753 134.754 256.689 132.182 255.243 129.824C253.927 127.452 252.256 125.295 250.287 123.428C247.953 121.355 246.059 120.892 245.287 121.339C245.047 121.534 244.849 121.777 244.708 122.053C244.566 122.328 244.483 122.63 244.464 122.94C244.31 124.084 244.36 125.247 244.611 126.374C245.228 129.124 246.28 131.758 247.728 134.176L247.727 134.174Z" fill="white"/>
<path d="M381.325 131.027C381.228 131.02 381.116 131.015 381.002 131.015C380.43 131.015 379.882 131.121 379.378 131.315L379.409 131.305C379.261 131.364 379.025 131.364 379.005 131.552C379.086 131.63 379.098 131.759 379.167 131.868C379.305 132.102 379.475 132.3 379.674 132.466L379.678 132.47C379.885 132.632 380.092 132.789 380.309 132.927C380.694 133.164 381.13 133.305 381.506 133.542C381.72 133.681 381.939 133.857 382.157 134.005C382.264 134.078 382.334 134.212 382.473 134.259V134.23C382.405 134.141 382.384 134.012 382.318 133.914C382.218 133.814 382.12 133.726 382.022 133.629C381.729 133.244 381.389 132.916 381.008 132.641L380.994 132.632C380.678 132.416 379.986 132.115 379.856 131.752L379.837 131.73C380.095 131.694 380.325 131.639 380.546 131.566L380.517 131.574C380.853 131.486 381.161 131.504 381.507 131.418C381.664 131.378 381.822 131.329 381.981 131.28V131.191C381.803 131.014 381.671 130.772 381.487 130.607C381.004 130.181 380.47 129.781 379.908 129.422L379.855 129.39C379.545 129.192 379.151 129.064 378.825 128.896C378.707 128.837 378.509 128.808 378.441 128.708C378.287 128.49 378.151 128.239 378.043 127.974L378.034 127.948C377.743 127.385 377.474 126.812 377.225 126.229C377.054 125.776 376.885 125.405 376.695 125.045L376.722 125.101C375.792 123.541 374.497 122.287 372.951 121.432L372.9 121.406C372.535 121.225 372.11 121.084 371.664 121.005L371.635 121C371.388 120.988 371.142 120.971 370.896 120.96C370.723 120.849 370.574 120.735 370.434 120.61L370.438 120.613C369.876 120.259 368.422 119.49 368.008 120.507C367.742 121.148 368.404 121.781 368.632 122.106C368.814 122.323 368.98 122.565 369.123 122.822L369.134 122.845C369.204 123.017 369.223 123.193 369.293 123.372C369.464 123.906 369.638 124.345 369.836 124.77L369.805 124.696C369.922 124.932 370.044 125.132 370.18 125.321L370.171 125.307C370.25 125.414 370.386 125.465 370.418 125.643C370.316 125.857 370.237 126.105 370.193 126.364L370.191 126.381C370.063 126.773 369.988 127.226 369.988 127.696C369.988 128.43 370.169 129.122 370.489 129.73L370.477 129.707C370.635 129.951 371.012 130.496 371.515 130.287C371.959 130.11 371.861 129.548 371.989 129.054C372.018 128.935 371.999 128.857 372.059 128.777V128.799C372.198 129.077 372.337 129.342 372.464 129.62C372.821 130.135 373.246 130.572 373.731 130.933L373.746 130.944C373.983 131.121 374.171 131.429 374.466 131.538V131.508H374.444C374.377 131.435 374.302 131.37 374.22 131.314L374.216 131.312C374.032 131.132 373.862 130.938 373.708 130.733L373.699 130.72C373.313 130.2 372.947 129.611 372.628 128.992L372.594 128.92C372.432 128.61 372.296 128.275 372.166 127.969C372.107 127.851 372.107 127.673 372.007 127.614C371.832 127.811 371.675 128.029 371.544 128.265L371.534 128.284C371.383 128.725 371.284 129.235 371.258 129.763V129.776C371.217 129.787 371.237 129.776 371.217 129.798C370.902 129.721 370.793 129.393 370.674 129.118C370.514 128.685 370.42 128.183 370.42 127.662C370.42 127.241 370.48 126.834 370.594 126.449L370.587 126.48C370.657 126.273 370.952 125.62 370.834 125.421C370.773 125.233 370.577 125.126 370.469 124.973C370.34 124.791 370.221 124.584 370.123 124.365L370.114 124.342C369.877 123.789 369.759 123.177 369.502 122.624C369.347 122.336 369.184 122.087 369.001 121.855L369.009 121.866C368.814 121.64 368.634 121.388 368.478 121.121L368.465 121.097C368.417 120.99 368.347 120.811 368.425 120.693C368.439 120.624 368.493 120.571 368.563 120.56C368.693 120.454 369.06 120.592 369.188 120.651C369.563 120.793 369.886 120.96 370.185 121.156L370.166 121.145C370.304 121.242 370.454 121.43 370.632 121.478H370.839C371.155 121.548 371.512 121.499 371.808 121.586C372.35 121.769 372.82 121.998 373.254 122.28L373.229 122.265C374.535 123.108 375.581 124.248 376.288 125.595L376.312 125.644C376.43 125.871 376.482 126.08 376.589 126.317C376.796 126.804 377.052 127.297 377.262 127.768C377.462 128.274 377.699 128.712 377.98 129.115L377.966 129.094C378.114 129.301 378.708 129.409 378.974 129.516C379.254 129.614 379.479 129.708 379.697 129.813L379.653 129.794C379.992 130.001 380.324 130.238 380.643 130.465C380.805 130.577 381.298 130.824 381.328 131.023L381.325 131.027ZM367.458 139.676C367.458 139.694 367.46 139.714 367.46 139.734C367.46 140.394 367.165 140.984 366.699 141.382L366.696 141.384C366.185 141.801 365.526 142.054 364.808 142.054C364.752 142.054 364.697 142.052 364.642 142.049H364.649C363.775 142.037 362.971 141.753 362.312 141.279L362.324 141.287L362.674 140.583C363.182 140.867 363.785 141.044 364.426 141.068H364.433C364.465 141.071 364.502 141.072 364.539 141.072C364.932 141.072 365.298 140.949 365.597 140.74L365.591 140.743C365.862 140.537 366.034 140.216 366.034 139.854C366.034 139.847 366.034 139.841 366.034 139.834V139.835C366.034 139.347 365.695 138.933 365.076 138.586C364.503 138.271 363.358 137.615 363.358 137.615C362.792 137.265 362.422 136.648 362.422 135.946C362.422 135.921 362.422 135.896 362.423 135.871V135.875C362.422 135.852 362.422 135.826 362.422 135.8C362.422 135.191 362.691 134.645 363.115 134.273L363.118 134.271C363.57 133.888 364.16 133.655 364.804 133.655C364.846 133.655 364.886 133.656 364.926 133.657H364.92C364.931 133.657 364.944 133.657 364.957 133.657C365.713 133.657 366.416 133.883 367.003 134.272L366.989 134.264L366.674 134.968C366.212 134.759 365.672 134.634 365.105 134.628H365.102C365.074 134.626 365.042 134.625 365.009 134.625C364.678 134.625 364.373 134.741 364.134 134.935L364.136 134.932C363.913 135.118 363.771 135.396 363.769 135.707C363.769 136.192 364.115 136.608 364.753 136.963C365.334 137.281 366.508 137.953 366.508 137.953C367.085 138.292 367.467 138.91 367.467 139.617C367.467 139.638 367.467 139.661 367.466 139.682V139.679L367.458 139.676ZM369.909 140.304C369.586 139.66 369.398 138.9 369.398 138.097C369.398 137.971 369.403 137.845 369.412 137.722L369.411 137.739C369.411 135.68 370.037 134.65 371.288 134.649C371.319 134.647 371.356 134.646 371.394 134.646C371.955 134.646 372.449 134.939 372.729 135.382L372.732 135.388C373.053 136.029 373.241 136.786 373.241 137.585C373.241 137.708 373.236 137.83 373.228 137.951L373.229 137.934C373.229 140.009 372.604 141.048 371.352 141.049C371.32 141.052 371.284 141.053 371.247 141.053C370.685 141.053 370.191 140.76 369.91 140.317L369.907 140.311L369.909 140.304ZM374.775 142.14L373.273 141.401C373.41 141.286 373.533 141.165 373.647 141.035L373.65 141.032C374.257 140.213 374.621 139.183 374.621 138.069C374.621 137.94 374.617 137.812 374.607 137.686L374.608 137.702C374.608 134.998 373.547 133.644 371.423 133.643C371.376 133.641 371.32 133.639 371.265 133.639C370.357 133.639 369.543 134.038 368.988 134.671L368.985 134.674C368.381 135.493 368.018 136.522 368.018 137.636C368.018 137.761 368.023 137.886 368.032 138.009L368.031 137.992C368.02 138.111 368.014 138.251 368.014 138.392C368.014 139.426 368.338 140.384 368.89 141.17L368.879 141.155C369.41 141.72 370.163 142.073 370.997 142.073C371.075 142.073 371.152 142.069 371.228 142.063L371.217 142.064C371.228 142.064 371.242 142.064 371.255 142.064C371.623 142.064 371.979 142.011 372.316 141.913L372.29 141.92L374.249 143.061L374.781 142.142L374.775 142.14ZM379.681 141.94H375.793V133.767H377.102V140.936H379.681V141.94ZM361.465 135.91C361.126 138.375 360.349 140.6 359.212 142.593L359.259 142.502C358.804 143.378 357.943 143.989 356.932 144.087L356.92 144.088C356.614 144.071 356.329 143.998 356.07 143.879L356.084 143.885V143.155C356.246 143.18 356.433 143.194 356.623 143.194C356.634 143.194 356.644 143.194 356.656 143.194C356.675 143.195 356.695 143.195 356.717 143.195C357.058 143.195 357.372 143.071 357.613 142.864L357.611 142.865C357.871 142.651 358.038 142.332 358.047 141.972C357.984 141.454 357.865 140.981 357.693 140.535L357.708 140.575L356.209 135.91H357.554L358.629 139.398C358.821 139.89 358.932 140.46 358.932 141.055C358.932 141.057 358.932 141.058 358.932 141.058C359.502 139.565 359.935 137.824 360.155 136.018L360.165 135.909L361.465 135.91ZM355.528 141.94H354.158C354.12 139.763 353.987 137.59 353.76 135.422H353.748L351.664 141.94H350.622L348.552 135.422H348.538C348.376 137.591 348.28 139.764 348.249 141.94H347C347.081 139.034 347.283 136.31 347.606 133.766H349.305L351.278 139.773H351.29L353.281 133.766H354.899C355.257 136.744 355.467 139.469 355.531 141.94H355.528ZM371.247 122.44C371.245 122.44 371.241 122.44 371.237 122.44C371.097 122.44 370.961 122.457 370.831 122.491L370.842 122.488V122.507H370.863C370.964 122.658 371.068 122.79 371.181 122.913L371.178 122.91C371.258 123.069 371.326 123.226 371.405 123.384L371.426 123.361C371.554 123.259 371.636 123.103 371.636 122.928C371.636 122.907 371.635 122.887 371.632 122.865V122.868C371.573 122.798 371.565 122.729 371.514 122.661C371.455 122.561 371.329 122.513 371.248 122.435L371.247 122.44Z" fill="white"/>
<path d="M411.026 134.535C410.77 134.238 410.333 134.32 409.994 134.387C409.181 134.532 408.297 134.7 407.509 134.362C408.916 132.143 410.022 129.72 410.641 127.162C410.866 126.19 411.04 125.196 411.007 124.195C410.982 123.635 410.905 123.038 410.562 122.574C409.715 121.457 408.487 120.643 407.133 120.279C405.442 119.82 403.628 119.957 401.964 120.471C401.827 120.499 401.691 120.437 401.557 120.42C400.047 120.114 398.382 120.234 397.073 121.108C395.502 120.543 393.813 120.201 392.14 120.376C390.895 120.505 389.646 121.084 388.932 122.143C388.03 123.465 387.907 125.153 388.051 126.702C388.341 128.76 388.843 130.785 389.481 132.76C389.901 133.991 390.364 135.232 391.112 136.307C391.492 136.836 391.997 137.368 392.676 137.451C393.28 137.525 393.826 137.15 394.197 136.706C394.837 135.94 395.495 135.188 396.178 134.46C396.624 134.679 397.108 134.805 397.604 134.842C397.336 135.16 397.115 135.575 396.688 135.7C396.113 135.922 395.44 135.892 394.933 136.275C394.641 136.484 394.627 136.94 394.889 137.18C395.364 137.641 396.064 137.74 396.696 137.794C397.591 137.862 398.496 137.561 399.175 136.974C399.171 138.398 399.177 139.825 399.337 141.241C399.417 142.07 399.775 142.896 400.405 143.454C401 143.973 401.847 144.08 402.601 143.949C403.342 143.808 404.103 143.586 404.681 143.081C405.295 142.539 405.558 141.72 405.68 140.935C405.9 139.527 406.068 138.114 406.228 136.7C407.81 136.967 409.601 136.664 410.783 135.508C411.036 135.27 411.276 134.858 411.026 134.535ZM407.515 121.151C408.464 121.512 409.308 122.138 409.942 122.931C410.244 123.309 410.282 123.818 410.302 124.284C410.316 125.393 410.092 126.489 409.807 127.556C409.261 129.531 408.433 131.424 407.393 133.186C407.291 133.36 407.179 133.528 407.055 133.687C407.045 133.639 407.026 133.541 407.016 133.492C407.146 133.152 407.334 132.832 407.408 132.472C407.668 131.455 407.449 130.408 407.355 129.385C407.257 128.419 407.586 127.479 407.578 126.516C407.615 126.044 407.428 125.598 407.247 125.174C406.591 123.707 405.547 122.402 404.208 121.506C403.882 121.282 403.517 121.125 403.191 120.9C404.615 120.595 406.142 120.633 407.514 121.15L407.515 121.151ZM406.647 129.387C406.731 130.53 407.062 131.757 406.524 132.841C405.801 131.404 404.868 130.031 404.542 128.431C404.45 127.922 404.427 127.277 404.879 126.923C405.453 126.516 406.203 126.607 406.867 126.648C406.838 127.565 406.557 128.464 406.648 129.387H406.647ZM393.734 136.157C393.474 136.462 393.124 136.826 392.683 136.735C392.166 136.586 391.838 136.114 391.55 135.691C390.772 134.447 390.303 133.041 389.873 131.647C389.392 129.996 388.987 128.319 388.753 126.614C388.637 125.316 388.709 123.925 389.373 122.769C389.87 121.895 390.797 121.337 391.771 121.154C393.331 120.854 394.931 121.172 396.428 121.629C395.767 122.354 395.253 123.209 394.953 124.145C394.545 125.394 394.358 126.724 394.456 128.037C394.513 128.962 394.488 129.892 394.359 130.809C394.197 132.007 394.678 133.24 395.568 134.049C394.962 134.757 394.319 135.432 393.733 136.158L393.734 136.157ZM395.099 131.864C394.947 131.186 395.146 130.503 395.169 129.823C395.221 129.054 395.167 128.284 395.152 127.514C395.871 127.049 396.712 126.685 397.583 126.735C398.035 126.755 398.451 127.074 398.56 127.519C398.955 129.095 399.078 130.849 398.32 132.341C398.055 132.918 397.84 133.514 397.656 134.119C396.395 134.132 395.322 133.065 395.099 131.864ZM399.024 136.083C398.232 137.156 396.648 137.36 395.503 136.777C396.067 136.515 396.728 136.536 397.273 136.213C397.8 135.93 398.009 135.305 398.502 134.984C399.039 134.909 399.43 135.706 399.025 136.082L399.024 136.083ZM405.814 134.831C405.513 135.315 405.619 135.906 405.545 136.444C405.372 137.952 405.203 139.461 404.957 140.959C404.841 141.677 404.536 142.44 403.858 142.798C403.164 143.151 402.357 143.373 401.576 143.252C400.834 143.122 400.367 142.431 400.157 141.757C400.003 141.193 399.987 140.603 399.943 140.022C399.869 138.618 399.868 137.212 399.904 135.808C399.935 135.26 399.653 134.689 399.163 134.422C398.927 134.289 398.649 134.27 398.385 134.249C398.593 133.217 399.221 132.326 399.437 131.296C399.716 130.021 399.561 128.693 399.276 127.434C399.136 126.806 398.658 126.25 398.022 126.097C397.042 125.851 396.054 126.234 395.178 126.644C395.289 125.22 395.67 123.763 396.542 122.607C397.183 121.747 398.178 121.173 399.239 121.036C400.991 120.813 402.831 121.295 404.223 122.391C405.373 123.3 406.282 124.531 406.772 125.916C405.958 125.887 405.035 125.854 404.377 126.42C403.779 126.923 403.702 127.782 403.837 128.503C404.148 130.219 405.161 131.678 405.908 133.221C406.106 133.582 406.373 133.898 406.627 134.222C406.325 134.375 405.988 134.521 405.816 134.832L405.814 134.831ZM407.91 136.044C407.372 136.108 406.813 136.127 406.294 135.949C406.296 135.655 406.28 135.308 406.516 135.089C406.703 134.951 406.968 134.824 407.184 134.975C408.102 135.458 409.169 135.222 410.145 135.104C409.548 135.684 408.723 135.955 407.91 136.044ZM405.091 127.138C404.9 127.295 405.106 127.529 405.27 127.603C405.668 127.837 406.213 127.51 406.226 127.056C405.866 126.888 405.416 126.905 405.091 127.138ZM398.046 127.863C398.216 127.767 398.395 127.504 398.199 127.345C397.919 127.117 397.513 127.074 397.172 127.165C397.063 127.204 396.947 127.279 396.97 127.413C397.049 127.87 397.66 128.147 398.045 127.863H398.046Z" fill="white"/>
<path d="M311 128C312.333 122.667 315.667 120 321 120C329 120 330 126 334 127C336.667 127.667 339 126.667 341 124C339.667 129.333 336.333 132 331 132C323 132 322 126 318 125C315.333 124.333 313 125.333 311 128ZM301 140C302.333 134.667 305.667 132 311 132C319 132 320 138 324 139C326.667 139.667 329 138.667 331 136C329.667 141.333 326.333 144 321 144C313 144 312 138 308 137C305.333 136.333 303 137.333 301 140Z" fill="white"/>
<g clip-path="url(#clip1_796_60)">
<path fill-rule="evenodd" clip-rule="evenodd" d="M271 132C271 125.373 276.373 120 283 120C289.627 120 295 125.373 295 132C295 136.139 292.904 139.789 289.716 141.946L278.851 126.735C278.649 126.452 278.287 126.332 277.956 126.438C277.625 126.544 277.4 126.852 277.4 127.2V139.2H279V129.696L288.328 142.755C286.723 143.552 284.914 144 283 144C276.373 144 271 138.627 271 132ZM287 136V126.4H288.6V136H287Z" fill="white"/>
</g>
<path d="M52.1895 82V55.2256H67.0518C70.3669 55.2256 73.1686 55.7389 75.457 56.7656C77.7578 57.7923 79.5081 59.2952 80.708 61.2744C81.9079 63.2412 82.5078 65.641 82.5078 68.4736V68.5107C82.5078 71.3929 81.9079 73.8421 80.708 75.8584C79.5081 77.8623 77.7578 79.39 75.457 80.4414C73.1562 81.4805 70.3545 82 67.0518 82H52.1895ZM59.3145 76.582H66.5879C68.4434 76.582 70.0143 76.2913 71.3008 75.71C72.5872 75.1162 73.5645 74.2318 74.2324 73.0566C74.9128 71.8691 75.2529 70.3848 75.2529 68.6035V68.5664C75.2529 66.847 74.9251 65.3997 74.2695 64.2246C73.6263 63.0495 72.6615 62.1589 71.375 61.5527C70.0885 60.9466 68.4928 60.6436 66.5879 60.6436H59.3145V76.582ZM86.0703 82V55.2256H110.711V60.458H93.1953V66.0615H109.505V70.8301H93.1953V76.7676H110.711V82H86.0703ZM118.3 82V77.1016H131.548C132.946 77.1016 134.022 76.8232 134.776 76.2666C135.531 75.71 135.908 74.8997 135.908 73.8359V73.8174C135.908 73.0999 135.729 72.5 135.37 72.0176C135.024 71.5352 134.504 71.1764 133.812 70.9414C133.131 70.694 132.29 70.5703 131.288 70.5703H118.3V66.2471H130.472C131.869 66.2471 132.946 65.9811 133.7 65.4492C134.455 64.9049 134.832 64.138 134.832 63.1484V63.1113C134.832 62.1465 134.498 61.4105 133.83 60.9033C133.174 60.3838 132.259 60.124 131.084 60.124H118.3V55.2256H133.051C134.882 55.2256 136.452 55.4915 137.764 56.0234C139.087 56.5553 140.102 57.3161 140.807 58.3057C141.512 59.2952 141.864 60.4766 141.864 61.8496V61.8867C141.864 62.9258 141.635 63.8597 141.178 64.6885C140.732 65.5049 140.095 66.1852 139.267 66.7295C138.45 67.2738 137.485 67.6449 136.372 67.8428V67.9355C137.77 68.084 138.97 68.4489 139.972 69.0303C140.986 69.5993 141.765 70.3477 142.31 71.2754C142.866 72.2031 143.145 73.2607 143.145 74.4482V74.4854C143.145 76.0563 142.749 77.4046 141.957 78.5303C141.165 79.6559 140.027 80.5156 138.543 81.1094C137.071 81.7031 135.296 82 133.218 82H118.3ZM114.719 82V55.2256H121.77V82H114.719ZM162.237 82.5195C158.848 82.5195 155.892 81.9567 153.368 80.8311C150.857 79.693 148.915 78.085 147.542 76.0068C146.169 73.9163 145.482 71.4548 145.482 68.6221V68.585C145.482 65.7523 146.169 63.2969 147.542 61.2188C148.927 59.1406 150.876 57.5326 153.387 56.3945C155.898 55.2565 158.848 54.6875 162.237 54.6875C165.639 54.6875 168.595 55.2565 171.106 56.3945C173.618 57.5326 175.56 59.1406 176.933 61.2188C178.318 63.2969 179.011 65.7523 179.011 68.585V68.6221C179.011 71.4548 178.318 73.9163 176.933 76.0068C175.56 78.085 173.618 79.693 171.106 80.8311C168.595 81.9567 165.639 82.5195 162.237 82.5195ZM162.237 76.9717C164.179 76.9717 165.862 76.6315 167.284 75.9512C168.707 75.2708 169.808 74.306 170.587 73.0566C171.366 71.7949 171.756 70.3167 171.756 68.6221V68.585C171.756 66.8779 171.36 65.4059 170.568 64.1689C169.789 62.9196 168.688 61.9548 167.266 61.2744C165.843 60.5941 164.167 60.2539 162.237 60.2539C160.308 60.2539 158.632 60.5941 157.209 61.2744C155.786 61.9424 154.686 62.901 153.906 64.1504C153.127 65.3997 152.737 66.8779 152.737 68.585V68.6221C152.737 70.3291 153.127 71.8073 153.906 73.0566C154.686 74.306 155.786 75.2708 157.209 75.9512C158.632 76.6315 160.308 76.9717 162.237 76.9717ZM193.854 82.5381C191.999 82.5381 190.298 82.3154 188.752 81.8701C187.206 81.4124 185.857 80.7383 184.707 79.8477C183.557 78.957 182.654 77.8685 181.998 76.582C181.355 75.2832 181.015 73.7865 180.978 72.0918L180.959 71.9248H187.843L187.861 72.0732C187.923 73.1247 188.214 74.0215 188.733 74.7637C189.253 75.4935 189.946 76.0501 190.812 76.4336C191.677 76.8047 192.661 76.9902 193.762 76.9902C195.63 76.9902 197.046 76.514 198.011 75.5615C198.976 74.609 199.458 73.2793 199.458 71.5723V55.2256H206.583V71.6465C206.583 73.8112 206.101 75.71 205.136 77.3428C204.183 78.9756 202.761 80.2497 200.868 81.165C198.976 82.0804 196.638 82.5381 193.854 82.5381ZM221.965 82V72.5L209.533 55.2256H217.419L225.453 66.748H225.583L233.617 55.2256H241.503L229.071 72.5V82H221.965ZM257.089 82.5195C253.7 82.5195 250.743 81.9567 248.22 80.8311C245.709 79.693 243.767 78.085 242.394 76.0068C241.021 73.9163 240.334 71.4548 240.334 68.6221V68.585C240.334 65.7523 241.021 63.2969 242.394 61.2188C243.779 59.1406 245.727 57.5326 248.238 56.3945C250.749 55.2565 253.7 54.6875 257.089 54.6875C260.491 54.6875 263.447 55.2565 265.958 56.3945C268.469 57.5326 270.411 59.1406 271.784 61.2188C273.17 63.2969 273.862 65.7523 273.862 68.585V68.6221C273.862 71.4548 273.17 73.9163 271.784 76.0068C270.411 78.085 268.469 79.693 265.958 80.8311C263.447 81.9567 260.491 82.5195 257.089 82.5195ZM257.089 76.9717C259.031 76.9717 260.713 76.6315 262.136 75.9512C263.558 75.2708 264.659 74.306 265.438 73.0566C266.218 71.7949 266.607 70.3167 266.607 68.6221V68.585C266.607 66.8779 266.212 65.4059 265.42 64.1689C264.641 62.9196 263.54 61.9548 262.117 61.2744C260.695 60.5941 259.019 60.2539 257.089 60.2539C255.159 60.2539 253.483 60.5941 252.061 61.2744C250.638 61.9424 249.537 62.901 248.758 64.1504C247.979 65.3997 247.589 66.8779 247.589 68.585V68.6221C247.589 70.3291 247.979 71.8073 248.758 73.0566C249.537 74.306 250.638 75.2708 252.061 75.9512C253.483 76.6315 255.159 76.9717 257.089 76.9717ZM284.865 82V60.6807H274.308V55.2256H302.511V60.6807H291.972V82H284.865ZM305.572 82V55.2256H312.697V82H305.572ZM326.502 82V55.2256H334.944L344.537 74.2812H344.648L354.241 55.2256H362.684V82H356.189V64.2061H353.499L358.546 58.8066L346.986 82H342.181L330.64 58.8066L335.687 64.2061H332.996V82H326.502ZM367.062 82V55.2256H374.188V82H367.062ZM392.649 82.5381C389.656 82.5381 387.083 82.2165 384.931 81.5732C382.778 80.93 381.077 79.9899 379.828 78.7529C378.591 77.516 377.849 76.013 377.602 74.2441L377.583 73.9844H384.448L384.485 74.1514C384.671 74.8564 385.104 75.4564 385.784 75.9512C386.477 76.4336 387.411 76.8047 388.586 77.0645C389.761 77.3118 391.171 77.4355 392.816 77.4355C394.202 77.4355 395.389 77.3057 396.379 77.0459C397.368 76.7861 398.123 76.415 398.643 75.9326C399.174 75.4378 399.44 74.8564 399.44 74.1885V74.1699C399.44 73.3164 399.088 72.6855 398.383 72.2773C397.678 71.8568 396.447 71.5475 394.69 71.3496L388.066 70.8301C384.764 70.5085 382.296 69.723 380.663 68.4736C379.03 67.2119 378.214 65.4616 378.214 63.2227V63.1855C378.214 61.429 378.752 59.9199 379.828 58.6582C380.917 57.3841 382.463 56.4069 384.467 55.7266C386.483 55.0339 388.877 54.6875 391.647 54.6875C394.455 54.6875 396.874 55.0091 398.902 55.6523C400.943 56.2956 402.551 57.2295 403.727 58.4541C404.902 59.6663 405.613 61.1322 405.86 62.8516L405.916 63.1484H399.051L398.995 62.9814C398.81 62.2764 398.414 61.6888 397.808 61.2188C397.214 60.7363 396.404 60.3776 395.377 60.1426C394.363 59.9076 393.132 59.79 391.685 59.79C390.299 59.79 389.13 59.9137 388.178 60.1611C387.238 60.3962 386.526 60.7425 386.044 61.2002C385.562 61.6455 385.32 62.1774 385.32 62.7959V62.8145C385.32 63.6185 385.685 64.2308 386.415 64.6514C387.145 65.0719 388.351 65.3688 390.033 65.542L396.75 66.0801C398.977 66.3027 400.813 66.7233 402.261 67.3418C403.708 67.9603 404.784 68.7952 405.489 69.8467C406.194 70.8857 406.547 72.1598 406.547 73.6689V73.6875C406.547 75.543 405.996 77.1325 404.896 78.4561C403.807 79.7673 402.224 80.7754 400.146 81.4805C398.08 82.1855 395.581 82.5381 392.649 82.5381ZM409.924 82V55.2256H417.049V65.6904H433.358V55.2256H440.483V82H433.358V71.1641H417.049V82H409.924ZM444.881 82V55.2256H461.97C464.308 55.2256 466.281 55.5719 467.889 56.2646C469.497 56.945 470.715 57.9284 471.544 59.2148C472.373 60.4889 472.787 62.029 472.787 63.835V63.8721C472.787 65.777 472.299 67.4098 471.321 68.7705C470.344 70.1188 468.946 71.096 467.128 71.7021L473.789 82H465.736L460.077 72.8154C460.028 72.8154 459.972 72.8154 459.91 72.8154C459.861 72.8154 459.805 72.8154 459.743 72.8154H452.006V82H444.881ZM452.006 67.9912H461.32C462.681 67.9912 463.739 67.6572 464.493 66.9893C465.248 66.3089 465.625 65.3688 465.625 64.1689V64.1318C465.625 62.9443 465.235 62.0166 464.456 61.3486C463.677 60.6683 462.613 60.3281 461.265 60.3281H452.006V67.9912ZM474.977 82L487.315 55.2256H494.032V60.8291H491.713L482.491 82H474.977ZM481.396 75.9141L483.438 71.127H499.933L501.955 75.9141H481.396ZM501.064 82L491.843 60.8291V55.2256H496.24L508.579 82H501.064Z" fill="white"/>
<defs>
<clipPath id="clip0_796_60">
<rect width="24" height="24" fill="white" transform="translate(178 120)"/>
</clipPath>
<clipPath id="clip1_796_60">
<rect width="24" height="24" fill="white" transform="translate(271 120)"/>
</clipPath>
</defs>
</svg>
