<svg width="11" height="10" viewBox="0 0 11 10" fill="none" xmlns="http://www.w3.org/2000/svg">
<g clip-path="url(#clip0_724_16)">
<path d="M0 3.89648C0 6.04492 1.74805 7.79297 3.89648 7.79297C4.74609 7.79297 5.52246 7.51953 6.16211 7.06055L8.56445 9.46777C8.67676 9.58008 8.82324 9.63379 8.97949 9.63379C9.31152 9.63379 9.54102 9.38477 9.54102 9.05762C9.54102 8.90137 9.48242 8.75977 9.37988 8.65723L6.99219 6.25488C7.49512 5.60059 7.79297 4.78516 7.79297 3.89648C7.79297 1.74805 6.04492 0 3.89648 0C1.74805 0 0 1.74805 0 3.89648ZM0.834961 3.89648C0.834961 2.20703 2.20703 0.834961 3.89648 0.834961C5.58594 0.834961 6.95801 2.20703 6.95801 3.89648C6.95801 5.58594 5.58594 6.95801 3.89648 6.95801C2.20703 6.95801 0.834961 5.58594 0.834961 3.89648Z" fill="black" fill-opacity="0.85"/>
</g>
<defs>
<clipPath id="clip0_724_16">
<rect width="10.1074" height="9.63379" fill="white"/>
</clipPath>
</defs>
</svg>
